<svg viewBox="0 0 588.072 588.601" version="1.1" xmlns="http://www.w3.org/2000/svg">
  <path d="M 293.11429,587.63979 C 292.8464,586.86032 284.27197,541.44757 274.06,486.72257 C 251.70998,366.95087 253.65049,376.72197 252.2149,376.72537 C 251.5664,376.72537 232.53108,387.00657 209.91419,399.56907 C 187.29731,412.13157 168.05981,422.69127 167.16419,423.03497 C 166.0962,423.44477 165.5358,423.13197 165.5358,422.12727 C 165.5358,421.28427 175.8858,401.97717 188.5358,379.22257 C 209.3961,341.69937 212.90098,334.72257 210.891,334.72257 C 210.53636,334.72257 194.44886,331.77437 175.141,328.17087 C 35.314025,302.07517 0.932895,295.51087 0.185135,294.76717 C -0.282735,294.30197 0.167235,293.66507 1.185135,293.35197 C 2.202995,293.03887 48.935795,284.21857 105.0358,273.75127 C 161.1358,263.28397 208.0483,254.48687 209.2858,254.20217 C 210.5233,253.91747 211.5358,253.03327 211.5358,252.23737 C 211.5358,251.44147 201.34577,232.46247 188.8913,210.06187 C 176.43682,187.66117 166.01575,168.44987 165.73337,167.37007 C 165.32816,165.82057 165.6221,165.51577 167.12787,165.92397 C 168.17723,166.20837 187.7108,176.83187 210.5358,189.53157 C 233.3608,202.23117 252.3825,212.27537 252.80624,211.85177 C 253.22998,211.42827 262.35653,164.08837 273.08745,106.65217 C 283.81837,49.215867 292.82393,1.5847673 293.09979,0.80536735 C 293.39914,-0.04043265 293.95296,-0.24203265 294.47341,0.30536735 C 295.15218,1.0192673 334.5358,208.17497 334.5358,211.03137 C 334.5358,213.12997 341.50703,209.64787 379.29192,188.67607 C 402.12949,176.00057 421.44096,165.76307 422.2063,165.92607 C 423.15031,166.12727 416.03033,179.87647 400.06681,208.67907 C 387.12476,232.03017 376.5358,251.68577 376.5358,252.35817 C 376.5358,253.86797 367.97251,252.15657 486.0358,274.24197 C 540.4858,284.42757 585.8686,293.02227 586.88646,293.34127 C 587.90433,293.66027 588.35433,294.30397 587.88646,294.77177 C 587.4186,295.23957 539.6733,304.50467 481.7858,315.36097 C 407.26551,329.33667 376.5358,335.47317 376.5358,336.37877 C 376.5358,337.08227 386.37827,355.35857 398.40797,376.99267 C 424.55118,424.00847 423.74502,422.47527 422.67046,423.13937 C 422.19855,423.43097 402.77604,413.10657 379.50932,400.19607 C 341.47721,379.09247 334.5358,375.54557 334.5358,377.21557 C 334.5358,377.48677 326.64789,419.89927 317.00711,471.46562 C 307.36633,523.03194 298.55841,570.17257 297.43396,576.22257 C 295.43001,587.00453 294.10216,590.51414 293.11429,587.63979 Z M 293.52049,399.53157 C 293.53159,326.50917 293.22923,298.65117 292.42014,298.15107 C 291.76755,297.74777 284.6233,304.14277 275.20766,313.55837 L 259.11083,329.65527 L 274.89707,414.43887 C 283.57951,461.06992 290.92432,500.06953 291.21888,501.1047 C 293.10256,507.72449 293.50675,489.88736 293.52049,399.53157 Z M 225.49358,374.80987 C 238.29073,367.70797 249.11478,361.52047 249.54702,361.05987 C 250.71741,359.81287 247.52853,343.40587 245.85553,342.06687 C 244.41712,340.91567 227.84476,338.02737 227.17279,338.81077 C 226.36302,339.75487 200.5358,386.62337 200.5358,387.14877 C 200.5358,388.48857 203.37484,387.08477 225.49358,374.80987 Z M 387.5358,387.01327 C 387.5358,386.62317 381.60566,375.59817 374.35772,362.51327 C 362.4144,340.95167 360.93866,338.72597 358.60772,338.75937 C 355.2033,338.80837 342.67478,341.25027 341.91087,342.01417 C 341.03234,342.89267 338.61188,354.70897 338.57093,358.31917 C 338.53673,361.33347 339.16728,361.76527 362.2858,374.55917 C 375.3483,381.78797 386.3733,387.70697 386.7858,387.71247 C 387.1983,387.72247 387.5358,387.40337 387.5358,387.01327 Z M 416.09377,313.21787 C 461.71189,304.69027 500.4983,297.44017 502.2858,297.10657 C 504.0733,296.77297 505.5358,296.10007 505.5358,295.61127 C 505.5358,295.09867 461.52002,294.72257 401.5358,294.72257 C 319.51171,294.72257 297.5358,294.98427 297.5358,295.96117 C 297.5358,298.15957 328.83097,328.72257 331.08205,328.72257 C 332.22038,328.72257 370.47566,321.74547 416.09377,313.21787 Z M 290.5358,292.46087 C 290.5358,291.76687 283.35937,284.03317 274.58817,275.27487 L 258.64054,259.35057 L 176.83817,274.63747 C 80.020005,292.73057 85.377765,291.65787 86.087925,292.80687 C 86.424455,293.35147 127.97275,293.72257 188.59482,293.72257 C 269.98603,293.72257 290.5358,293.46827 290.5358,292.46087 Z M 312.27476,275.48397 C 322.57916,265.19377 328.53202,258.50847 328.52548,257.23397 C 328.50398,253.04267 296.49176,84.278567 295.53716,83.323967 C 294.86868,82.655467 294.5358,117.12777 294.5358,187.02257 C 294.5358,244.60757 294.86833,291.72257 295.27476,291.72257 C 295.68119,291.72257 303.33119,284.41517 312.27476,275.48397 Z M 238.5358,248.66427 C 242.1108,248.00307 245.54783,246.95827 246.17365,246.34237 C 247.54244,244.99527 250.49979,229.27437 249.64082,227.91137 C 248.6757,226.37997 201.49616,200.42887 200.85063,201.07437 C 200.36301,201.56197 221.67103,241.19177 226.3723,248.54087 C 227.39407,250.13817 228.50545,250.70477 229.94557,250.36277 C 231.0952,250.08977 234.9608,249.32547 238.5358,248.66427 Z M 371.82802,230.71367 C 387.6359,202.29477 387.91234,201.76577 387.2835,201.13697 C 386.96691,200.82037 375.87728,206.56007 362.63986,213.89197 C 341.72279,225.47737 338.56948,227.53477 338.55382,229.60727 C 338.52522,233.39707 340.77151,245.12347 341.73666,246.22257 C 342.67243,247.28817 357.03324,250.63547 359.51099,250.36547 C 360.32235,250.27747 365.86501,241.43377 371.82802,230.71367 Z" fill="#000" fill-opacity="1" />
</svg>
